<?xml version="1.0" standalone="no"?>
<!DOCTYPE svg PUBLIC "-//W3C//DTD SVG 20010904//EN"
 "http://www.w3.org/TR/2001/REC-SVG-20010904/DTD/svg10.dtd">
<svg version="1.0" xmlns="http://www.w3.org/2000/svg"
 width="168.000000pt" height="168.000000pt" viewBox="0 0 168.000000 168.000000"
 preserveAspectRatio="xMidYMid meet">
<metadata>
Created by potrace 1.14, written by Peter Selinger 2001-2017
</metadata>
<g transform="translate(0.000000,168.000000) scale(0.100000,-0.100000)"
fill="#000000" stroke="none">
<path d="M200 1462 c-37 -18 -49 -38 -54 -92 -2 -22 -5 -43 -8 -45 -2 -2 -26
-7 -52 -9 -89 -10 -86 1 -86 -322 0 -278 0 -284 22 -304 16 -14 35 -20 70 -20
45 0 54 -6 49 -33 -1 -5 3 -26 9 -47 15 -57 50 -80 121 -80 128 0 143 22 144
218 l0 146 36 2 c36 2 37 2 42 -41 4 -40 34 -91 84 -143 15 -16 15 -9 15 -269
1 -211 7 -243 40 -209 12 12 15 56 14 248 l-1 234 -41 50 c-52 62 -64 86 -58
110 5 18 16 19 239 17 197 -2 235 0 246 13 21 25 -5 38 -79 39 -38 1 -74 5
-80 9 -18 11 -14 53 6 61 28 12 243 9 251 -3 5 -9 7 -100 2 -164 0 -9 -22 -42
-48 -74 -38 -46 -47 -66 -49 -100 -3 -50 16 -75 41 -54 8 7 15 18 14 24 -3 28
2 56 14 68 49 52 80 103 84 142 5 42 6 43 42 42 l36 -1 2 -135 c0 -74 1 -143
2 -153 1 -10 15 -32 31 -49 29 -29 33 -29 106 -26 97 6 124 28 127 106 l2 52
53 0 c39 0 57 5 72 20 19 19 20 33 20 303 0 324 3 312 -85 322 -47 6 -69 20
-59 37 11 17 -18 89 -42 104 -28 19 -138 26 -169 11 -54 -27 -61 -53 -60 -225
l1 -133 -60 3 -59 3 -2 53 c-2 43 -7 59 -29 80 -22 23 -35 27 -78 26 -37 -1
-56 4 -70 18 -29 29 -91 27 -124 -3 -17 -16 -26 -18 -47 -10 -27 10 -78 1
-101 -18 -8 -7 -24 -7 -44 -1 -18 5 -35 9 -37 10 -14 2 -66 -32 -75 -49 -5
-11 -10 -40 -10 -65 l0 -46 -59 0 -59 0 1 41 c1 44 -18 66 -40 47 -10 -8 -13
-78 -13 -308 0 -342 4 -328 -89 -325 -55 2 -70 13 -72 50 0 11 -1 190 -1 397
-1 289 2 381 12 393 15 18 101 21 131 5 16 -9 19 -22 19 -75 0 -54 3 -66 20
-75 32 -17 38 7 31 132 -1 24 -41 77 -59 79 -64 7 -127 3 -152 -9z m1268 -54
c9 -9 12 -81 12 -262 0 -142 4 -258 10 -266 7 -12 13 -12 27 -4 16 10 18 30
20 180 0 93 1 179 2 191 1 18 6 21 34 17 17 -3 38 -7 45 -9 9 -3 12 -65 12
-264 0 -239 -1 -260 -17 -264 -37 -9 -73 -6 -74 6 -5 56 -7 73 -8 80 -2 14
-39 7 -45 -9 -3 -9 -6 -59 -6 -112 0 -53 -4 -103 -8 -110 -12 -19 -107 -23
-132 -5 -20 14 -20 23 -20 417 0 299 3 405 12 414 7 7 37 12 68 12 31 0 61 -5
68 -12z m-1324 -416 l-1 -267 -44 0 -44 0 0 265 0 264 25 6 c14 3 34 4 45 2
19 -3 20 -11 19 -270z m794 256 c7 -7 12 -44 12 -95 0 -90 -10 -106 -60 -93
-24 6 -25 9 -26 85 -1 44 2 88 7 98 11 20 49 23 67 5z m-138 -38 c6 -11 10
-48 8 -82 -3 -55 -6 -64 -28 -75 -39 -19 -57 4 -59 77 -1 33 3 69 9 80 14 26
56 26 70 0z m278 -2 c7 -7 12 -39 12 -75 0 -57 -2 -65 -22 -72 -13 -5 -32 -5
-43 -1 -17 6 -20 17 -21 66 0 33 3 67 8 77 10 20 48 23 66 5z m-418 -17 c16
-31 12 -106 -7 -130 -16 -18 -21 -19 -43 -8 -22 11 -25 20 -28 71 -2 34 2 64
9 72 17 20 57 17 69 -5z m-105 -167 c37 -35 77 -41 120 -17 15 9 26 8 48 -4
17 -8 40 -12 57 -8 27 6 28 5 27 -29 0 -20 -6 -37 -11 -39 -6 -2 -94 -3 -196
-2 l-185 0 -1 60 c0 33 1 62 2 65 1 3 25 6 53 7 45 0 55 -3 86 -33z m706 27
c5 -1 5 -99 0 -122 -1 -5 -26 -5 -63 0 -5 1 -8 12 -8 25 0 33 -17 77 -36 91
-12 8 -2 10 43 9 32 -1 61 -2 64 -3z"/>
<path d="M1038 528 c-6 -51 -3 -297 4 -311 7 -13 13 -15 27 -8 17 9 18 24 16
163 -1 84 -3 156 -3 161 -3 12 -42 8 -44 -5z"/>
</g>
</svg>
